HIERARCHY
ROOT Hips
{
	OFFSET -0.001795 -0.223333 0.028219
	CHANNELS 6 Xposition Yposition Zposition Zrotation Yrotation Xrotation 
	JOINT LeftUpLeg
	{
		OFFSET 0.069520 -0.091406 -0.006815
		CHANNELS 3 Zrotation Yrotation Xrotation
		JOINT LeftLeg
		{
			OFFSET 0.034277 -0.375199 -0.004496
			CHANNELS 3 Zrotation Yrotation Xrotation
			JOINT LeftFoot
			{
				OFFSET -0.013596 -0.397961 -0.043693
				CHANNELS 3 Zrotation Yrotation Xrotation
				JOINT LeftToe
				{
					OFFSET 0.026358 -0.055791 0.119288
					CHANNELS 3 Zrotation Yrotation Xrotation
					End Site
					{
						OFFSET 0.000000 0.000000 0.000000
					}
				}
			}
		}
	}
	JOINT RightUpLeg
	{
		OFFSET -0.067670 -0.090522 -0.004320
		CHANNELS 3 Zrotation Yrotation Xrotation
		JOINT RightLeg
		{
			OFFSET -0.038290 -0.382569 -0.008850
			CHANNELS 3 Zrotation Yrotation Xrotation
			JOINT RightFoot
			{
				OFFSET 0.015774 -0.398415 -0.042312
				CHANNELS 3 Zrotation Yrotation Xrotation
				JOINT RightToe
				{
					OFFSET -0.025372 -0.048144 0.123348
					CHANNELS 3 Zrotation Yrotation Xrotation
					End Site
					{
						OFFSET 0.000000 0.000000 0.000000
					}
				}
			}
		}
	}
	JOINT Spine
	{
		OFFSET -0.002533 0.108963 -0.026696
		CHANNELS 3 Zrotation Yrotation Xrotation
		JOINT Spine1
		{
			OFFSET 0.005487 0.135180 0.001092
			CHANNELS 3 Zrotation Yrotation Xrotation
			JOINT Spine2
			{
				OFFSET 0.001457 0.052922 0.025425
				CHANNELS 3 Zrotation Yrotation Xrotation
				JOINT Neck
				{
					OFFSET -0.002778 0.213870 -0.042857
					CHANNELS 3 Zrotation Yrotation Xrotation
					JOINT Head
					{
						OFFSET 0.005152 0.064970 0.051349
						CHANNELS 3 Zrotation Yrotation Xrotation
						End Site
						{
							OFFSET 0.000000 0.000000 0.000000
						}
					}
				}
				JOINT LeftShoulder
				{
					OFFSET 0.078845 0.121749 -0.034090
					CHANNELS 3 Zrotation Yrotation Xrotation
					JOINT LeftArm
					{
						OFFSET 0.090977 0.030469 -0.008868
						CHANNELS 3 Zrotation Yrotation Xrotation
						JOINT LeftForeArm
						{
							OFFSET 0.259612 -0.012772 -0.027456
							CHANNELS 3 Zrotation Yrotation Xrotation
							JOINT LeftHand
							{
								OFFSET 0.249234 0.008986 -0.001171
								CHANNELS 3 Zrotation Yrotation Xrotation
								End Site
								{
									OFFSET 0.000000 0.000000 0.000000
								}
							}
						}
					}
				}
				JOINT RightShoulder
				{
					OFFSET -0.081759 0.118833 -0.038615
					CHANNELS 3 Zrotation Yrotation Xrotation
					JOINT RightArm
					{
						OFFSET -0.096012 0.032551 -0.009143
						CHANNELS 3 Zrotation Yrotation Xrotation
						JOINT RightForeArm
						{
							OFFSET -0.253742 -0.013329 -0.021401
							CHANNELS 3 Zrotation Yrotation Xrotation
							JOINT RightHand
							{
								OFFSET -0.255298 0.007772 -0.005559
								CHANNELS 3 Zrotation Yrotation Xrotation
								End Site
								{
									OFFSET 0.000000 0.000000 0.000000
								}
							}
						}
					}
				}
			}
		}
	}
}
MOTION
Frames: 16
Frame Time: 0.050000
-0.003941 0.927531 0.109657 -3.389750 6.334909 -14.983536 4.591243 0.621448 30.932211 0.782039 -0.503939 8.507468 -3.047778 5.802653 26.315075 0.000000 0.000000 0.000000 1.750287 1.127623 -9.894599 3.618273 -0.664596 19.395689 -0.450828 -8.850212 30.722602 0.000000 0.000000 0.000000 -1.158196 -3.416960 53.510229 39.845382 15.305166 -93.504837 -14.038745 33.757609 77.407525 2.557255 10.027438 -26.627718 0.000000 0.000000 0.000000 -35.718936 -2.626829 -12.486643 -33.408488 -2.430277 -8.227369 -21.952996 -33.477175 7.897683 0.000000 0.000000 0.000000 44.178289 2.261256 19.996907 29.366165 18.424525 -11.671175 -1.201054 23.520983 0.404143 0.000000 0.000000 0.000000 
-0.006429 0.941459 0.159455 -3.636877 4.931880 -15.232017 6.231286 0.365252 26.626484 -1.471914 -0.495431 18.405086 -3.332477 6.453977 30.528282 0.000000 0.000000 0.000000 2.735821 0.887912 -6.977248 3.968831 -0.691664 19.737861 -0.141208 -8.306185 28.413051 0.000000 0.000000 0.000000 0.053573 -3.722475 53.685660 40.557947 13.468122 -88.417658 -14.433747 34.243146 70.014309 1.256053 10.711318 -20.762273 0.000000 0.000000 0.000000 -37.820087 -2.983257 -15.117903 -31.220305 2.513471 -6.994167 -22.063694 -31.742064 7.235555 0.000000 0.000000 0.000000 44.338423 3.408994 21.003441 28.022651 17.169557 -10.410001 -0.452487 24.328102 0.394361 0.000000 0.000000 0.000000 
-0.008560 0.953464 0.201426 -3.223753 4.703133 -15.789471 7.470383 0.163006 18.525067 -5.254525 0.201736 32.540682 0.075591 10.565605 32.274721 0.000000 0.000000 0.000000 3.747398 0.367118 -2.486215 2.379240 -0.183984 17.463073 -0.601445 -9.029931 28.680657 0.000000 0.000000 0.000000 -0.536747 -3.508531 55.342657 38.194355 13.011163 -89.070272 -11.038774 31.869223 71.767517 1.814023 9.605216 -18.938488 0.000000 0.000000 0.000000 -40.284192 -3.762480 -14.430497 -29.391986 3.574192 -6.939070 -22.058041 -30.602181 7.192540 0.000000 0.000000 0.000000 42.955863 4.537913 20.532403 26.275596 17.207373 -9.823376 0.167067 27.111770 0.521941 0.000000 0.000000 0.000000 
-0.009606 0.965374 0.238156 -2.564615 3.994770 -16.362648 7.667565 0.167505 10.382893 -8.988083 1.865435 43.350308 3.021118 13.004414 28.364674 0.000000 0.000000 0.000000 4.097390 -0.289718 2.290737 1.189608 0.148162 14.201419 -0.594460 -9.173094 28.569398 0.000000 0.000000 0.000000 -1.735537 -2.856285 57.687818 35.628378 11.244858 -85.944714 -7.552953 29.790390 67.854095 1.831433 8.634111 -16.424238 0.000000 0.000000 0.000000 -42.291146 -4.640813 -14.424094 -27.593161 5.083167 -6.111146 -21.766810 -28.950454 6.737435 0.000000 0.000000 0.000000 42.858798 5.062069 19.945774 24.736052 16.675286 -8.772638 -0.447105 29.983631 0.441131 0.000000 0.000000 0.000000 
-0.009514 0.977697 0.273937 -1.848237 3.196062 -16.055749 6.956828 0.076411 1.711082 -12.405004 4.078874 48.077407 6.849728 16.746414 22.283447 0.000000 0.000000 0.000000 3.485279 -0.811323 6.146703 0.676285 0.238294 11.249140 -0.100571 -8.684196 28.456751 0.000000 0.000000 0.000000 -2.936374 -2.063507 59.551439 32.443549 10.389214 -85.477091 -3.614353 27.693139 67.056679 1.772343 8.115584 -16.129344 0.000000 0.000000 0.000000 -43.341365 -4.963805 -13.672911 -27.025847 5.339467 -5.983072 -21.357814 -28.343364 6.547340 0.000000 0.000000 0.000000 41.080020 6.347242 19.209296 24.386231 16.437490 -8.149510 0.416854 32.616528 0.726901 0.000000 0.000000 0.000000 
-0.008034 0.988266 0.310972 -0.993835 3.175097 -15.910330 6.485353 -0.193405 -6.315507 -13.732499 4.809988 46.984710 7.817404 17.839464 20.762732 0.000000 0.000000 0.000000 2.359700 -1.324710 10.554989 0.179051 0.261932 8.308394 0.835786 -7.432128 28.396594 0.000000 0.000000 0.000000 -4.175977 -1.344032 60.471409 30.165200 9.185026 -83.378852 -1.503158 26.781520 64.481084 1.110762 8.337250 -15.331707 0.000000 0.000000 0.000000 -43.677321 -5.078824 -13.721754 -26.751693 5.768382 -5.660378 -21.607906 -27.493042 6.390853 0.000000 0.000000 0.000000 39.595770 6.562328 18.378805 24.801142 17.351326 -7.631400 -0.008015 34.896362 0.909361 0.000000 0.000000 0.000000 
-0.005175 0.994889 0.351005 -0.571898 2.526056 -15.574896 6.112031 -0.428066 -11.356013 -12.666540 3.932743 38.923775 7.841694 17.830144 20.467682 0.000000 0.000000 0.000000 1.654296 -1.693945 14.142630 -0.563824 0.297445 5.495144 2.444532 -5.538804 29.087236 0.000000 0.000000 0.000000 -5.508957 -0.392248 61.581724 29.922799 9.263721 -83.489375 0.964962 27.018713 64.794525 0.193314 9.522664 -16.569498 0.000000 0.000000 0.000000 -43.646685 -5.332282 -14.097148 -27.038950 6.491237 -5.643655 -22.406853 -27.114957 6.472648 0.000000 0.000000 0.000000 37.225381 6.891321 17.672683 24.803280 18.508379 -7.155497 0.727148 36.624267 1.257624 0.000000 0.000000 0.000000 
-0.000923 0.996028 0.394945 -0.283507 2.365274 -15.068044 5.613718 -0.634608 -14.394895 -10.139573 2.347314 27.552956 5.793914 15.353558 21.834066 0.000000 0.000000 0.000000 1.240523 -2.054399 17.547337 -1.046009 0.294287 3.707942 3.223611 -4.626156 29.485082 0.000000 0.000000 0.000000 -6.066976 -0.004712 61.838250 26.831710 8.511096 -83.465795 3.069378 25.269703 64.328307 -1.630273 10.806393 -16.249924 0.000000 0.000000 0.000000 -44.175130 -5.510744 -13.073660 -26.731008 6.735185 -5.746013 -22.678499 -26.920092 6.524801 0.000000 0.000000 0.000000 35.353623 7.236361 16.528181 24.951229 18.869323 -6.830895 1.680120 39.228532 1.907413 0.000000 0.000000 0.000000 
0.004841 0.987872 0.443299 -0.404387 0.925358 -14.841983 5.554587 -0.608587 -14.561040 -6.904230 1.101019 14.566417 4.776547 13.882673 21.796110 0.000000 0.000000 0.000000 1.202994 -2.396958 21.056181 -1.503226 0.306566 2.656623 3.925030 -3.632371 28.356224 0.000000 0.000000 0.000000 -5.961937 0.373828 60.975771 26.241536 7.542469 -80.544629 3.031895 25.733776 61.496059 -1.753539 10.678334 -15.338872 0.000000 0.000000 0.000000 -44.402296 -4.638693 -14.228410 -26.392466 8.053129 -5.589241 -23.803783 -26.373436 6.642889 0.000000 0.000000 0.000000 35.080074 7.654104 16.614600 23.602533 19.395547 -6.298341 2.005495 42.150665 2.279197 0.000000 0.000000 0.000000 
0.012428 0.973944 0.496225 -0.666162 -1.088113 -15.362570 6.453237 -0.369293 -13.321540 -4.713978 0.587393 6.039842 4.676988 13.459078 21.814615 0.000000 0.000000 0.000000 0.709152 -2.532082 24.485208 -1.762610 0.370902 3.204747 4.303282 -2.890429 26.404274 0.000000 0.000000 0.000000 -6.582165 1.338168 61.672835 27.389203 8.957853 -84.472259 4.836022 27.571594 67.272213 -1.829379 11.995352 -20.500938 0.000000 0.000000 0.000000 -42.742082 -4.202864 -14.877521 -28.189130 7.611716 -6.357087 -22.514714 -25.886707 6.181945 0.000000 0.000000 0.000000 34.114264 7.607488 16.905422 22.679123 21.730032 -6.461305 2.792800 43.389965 2.595790 0.000000 0.000000 0.000000 
0.022377 0.957146 0.553316 -0.783281 -2.830829 -15.784981 6.904454 -0.244378 -13.189204 -3.854603 0.471621 6.413349 4.850141 13.379348 21.568828 0.000000 0.000000 0.000000 -0.219340 -2.463040 27.887260 -1.892956 0.467463 4.536245 4.832966 -1.771383 24.506504 0.000000 0.000000 0.000000 -8.413562 2.767374 59.706686 34.315754 9.252229 -80.223410 3.305793 33.474301 67.078738 -2.108442 13.778134 -24.454714 0.000000 0.000000 0.000000 -42.603387 -5.551536 -17.666030 -27.451767 8.803805 -5.543893 -21.572879 -24.274017 5.445361 0.000000 0.000000 0.000000 36.167348 7.831528 19.522002 19.278673 23.159629 -6.193784 0.345983 43.695078 1.019130 0.000000 0.000000 0.000000 
0.035671 0.945237 0.615187 -0.785626 -3.608793 -15.740141 6.867803 -0.257884 -14.575464 -5.733853 1.005821 13.908212 5.434214 14.268826 23.891777 0.000000 0.000000 0.000000 -1.618336 -2.188110 30.475315 -2.421985 0.703130 6.884454 4.649609 -1.870493 23.640219 0.000000 0.000000 0.000000 -10.928380 4.080023 57.066948 38.350815 8.755942 -77.060423 2.719824 36.329494 67.453382 -0.843829 13.524092 -23.886476 0.000000 0.000000 0.000000 -42.251237 -6.368630 -18.604698 -27.918521 8.785658 -5.351087 -18.859579 -23.126565 4.562818 0.000000 0.000000 0.000000 37.993057 8.836752 21.817843 18.048691 22.943586 -6.283242 -4.107771 42.791490 -1.048339 0.000000 0.000000 0.000000 
0.053128 0.945579 0.680484 -0.698036 -3.480681 -14.804341 6.462139 -0.367834 -15.968341 -7.367389 1.684077 20.172558 4.858304 13.861459 26.427843 0.000000 0.000000 0.000000 -3.443376 -1.619179 28.948198 -1.926027 1.023032 12.895992 5.714421 -1.446760 26.759508 0.000000 0.000000 0.000000 -13.441973 5.024506 54.339828 44.619613 8.888506 -73.758706 0.216040 40.433318 66.570100 0.042723 13.649464 -27.479405 0.000000 0.000000 0.000000 -41.869300 -6.841569 -21.059224 -27.783104 9.167357 -4.657816 -17.728054 -22.476085 4.082622 0.000000 0.000000 0.000000 38.894620 7.294967 22.621423 19.502241 22.406263 -6.704844 -5.847670 41.884353 -1.536824 0.000000 0.000000 0.000000 
0.072873 0.958579 0.744163 -0.057589 -1.520127 -14.917474 3.670706 -0.762268 -13.871047 -7.299170 1.625775 22.721610 5.178335 14.372860 24.912306 0.000000 0.000000 0.000000 -4.553607 -1.340538 24.930652 -1.810484 1.621153 22.616651 5.753288 -3.764923 34.790531 0.000000 0.000000 0.000000 -14.539057 5.188731 55.008509 43.715837 7.893677 -71.856276 -1.322128 38.394649 60.399814 1.410468 11.441833 -22.163341 0.000000 0.000000 0.000000 -41.794259 -6.420334 -20.129923 -28.073206 8.796905 -4.430916 -18.657530 -21.606661 4.074530 0.000000 0.000000 0.000000 39.179205 6.236759 21.320572 22.667411 18.311250 -6.925025 -2.845283 40.955232 -0.170940 0.000000 0.000000 0.000000 
0.091665 0.979273 0.802422 -0.164915 0.663343 -15.519067 1.080549 -0.765968 -9.325713 -6.265027 1.090205 21.770328 4.291477 13.647884 25.105187 0.000000 0.000000 0.000000 -4.643072 -1.119429 18.204042 -0.672808 1.819764 36.012926 4.098716 -6.438986 38.633307 0.000000 0.000000 0.000000 -14.043419 4.560390 57.421642 39.794444 7.962992 -73.800194 -0.928863 33.960396 59.266247 0.546891 11.094593 -22.761536 0.000000 0.000000 0.000000 -41.605691 -6.519208 -17.099386 -28.613503 6.747314 -4.634518 -19.367086 -23.260984 4.606753 0.000000 0.000000 0.000000 37.831378 4.914197 18.418842 26.384816 15.706433 -7.502524 0.952775 39.601280 1.677463 0.000000 0.000000 0.000000 
0.107441 1.004199 0.856397 -0.301954 1.719806 -16.084684 -0.742215 -0.315576 -3.106515 -4.372223 0.451579 18.220624 3.583256 13.124663 26.199168 0.000000 0.000000 0.000000 -4.110238 -0.680411 9.770444 0.642997 1.401469 47.504555 0.736333 -9.663985 35.901812 0.000000 0.000000 0.000000 -13.049700 3.803235 58.546036 38.235507 8.015439 -74.936539 -2.455603 31.216315 58.819454 1.669874 9.354936 -20.984852 0.000000 0.000000 0.000000 -41.922453 -6.395218 -15.239012 -28.444069 5.692095 -4.871531 -19.972923 -26.230554 5.449601 0.000000 0.000000 0.000000 38.296481 5.535787 18.012735 27.236405 13.781005 -7.780089 2.549140 37.970806 2.024001 0.000000 0.000000 0.000000 
